<svg width="140" height="40" viewBox="0 0 140 40" fill="none" xmlns="http://www.w3.org/2000/svg">
  <!-- Bread icon (original SVG, scaled and positioned) -->
  <g transform="scale(0.035) translate(0, 20)">
    <path transform="translate(514,49)" d="m0 0h46l37 2 36 4 36 6 31 7 35 10 31 11 28 12 21 10 22 12 21 13 19 13 16 12 11 9 13 11 15 14 13 13 7 8 11 13 10 14 7 12 5 13 5 25 2 22v13l-2 29-5 30-6 24-8 20-12 23-14 20-11 13-10 10-2 1v29l2 51 2 38 2 89 1 22v20l-4 16-7 13-9 11-7 7-17 13-17 11-22 13-29 16-27 14-19 10-41 21-38 19-19 10-24 12-23 11-31 15-29 12-24 7-11 2-14 1-17-2-13-5-34-16-48-24-19-10-29-15-22-12-23-12-23-13-20-11-27-16-28-17-54-36-17-12-19-14-10-8-8-8-6-12-3-12-1-9v-63l5-195v-6l-21-21-13-17-10-15-11-21-9-24-5-22-2-20v-14l3-21 5-16 9-19 12-16 12-14 9-9 11-9 15-12 17-12 18-12 25-15 22-12 15-8 28-13 27-11 30-11 28-9 38-10 37-8 37-6 35-4 28-2z" fill="#E07F14"/>
    <path transform="translate(146,234)" d="m0 0h24l28 3 36 7 30 8 32 10 38 14 34 14 24 11 25 12 24 13 25 15 22 15 19 14 13 11 10 9 12 11 13 14 11 14 10 15 9 16 7 19 3 13 1 8v13l-3 16-6 15-7 12-11 12-7 7-13 9-15 8-17 6-10 2v197l-1 105-4 10-5 4-2 1h-10l-29-13-41-18-39-18-28-13-25-12-19-10-22-12-24-14-32-19-22-14-22-15-17-13-13-11-10-10-6-9-2-6-1-9v-95l3-96 2-50v-20l-13-11-14-14-9-11-10-14-9-16-6-12-7-21-3-15-1-9v-21l3-15 8-16 9-10 9-7 14-7 19-5z" fill="#FEEACA"/>
    <path transform="translate(514,49)" d="m0 0h46l37 2 36 4 36 6 31 7 35 10 31 11 28 12 21 10 22 12 21 13 19 13 16 12 11 9 13 11 15 14 13 13 7 8 11 13 9 12-1 3-30 13-37 16-56 24-54 23-45 19-36 15-49 20-29 11-15 5h-5l-9-9-7-8-9-9-8-7-12-11-14-11-17-13-30-20-20-12-18-10-23-12-25-12-28-12-28-11-34-12-37-12-36-9-27-5-23-3-12-1h-41l-25 3-21 5-19 7-17 9-7 5-2-1 7-8 7-7 11-9 15-12 17-12 18-12 25-15 22-12 15-8 28-13 27-11 30-11 28-9 38-10 37-8 37-6 35-4 28-2z" fill="#F4B03E"/>
    <path transform="translate(989,309)" d="m0 0h2l1 6v13l-2 29-5 30-6 24-8 20-12 23-14 20-11 13-10 10-3 2v38l-8 4-131 55-41 17-46 19-38 15-34 13-34 12-23 7-5 1h-9l-1-1v-29l1-12 19-8 15-8 17-12 14-12 13-12 9-11 8-14 5-13 4-18 1-10v-27l-3-24-2-12 15-8 65-29 41-18 36-16 43-19 80-34 43-18z" fill="#AC5811"/>
  </g>
  
  <!-- "Bread" text -->
  <text x="48" y="27" font-family="Inter, -apple-system, BlinkMacSystemFont, 'Segoe UI', sans-serif" font-size="27" font-weight="700" fill="#FAFAFA">bread</text>
</svg>
